<?xml version="1.0" encoding="UTF-8"?>
<svg id="Layer_2" data-name="Layer 2" xmlns="http://www.w3.org/2000/svg" viewBox="0 0 100 100">
  <defs>
    <style>
      .cls-1 {
        fill: #fff;
        fill-rule: evenodd;
      }

      .cls-2 {
        fill: #62b6cb;
      }
    </style>
  </defs>
  <g id="Layer_1-2" data-name="Layer 1">
    <g>
      <circle class="cls-2" cx="50" cy="50" r="50"/>
      <path class="cls-1" d="M76.5,47.6l.6-19c0-1.3-.4-2.4-1.3-3.4s-2-1.3-3.4-1.3c-5.2,0-14.5.4-19,.6-1.7,0-3.4.7-4.7,2-4.8,4.8-19.2,19.2-24.6,24.6-1.5,1.5-1.5,3.9,0,5.4,4.7,4.7,15.8,15.8,20.3,20.3,1.5,1.5,3.9,1.5,5.4,0,5.4-5.4,19.7-19.7,24.6-24.6,1.3-1.3,1.9-2.8,2-4.7l.1.1ZM74.6,47.6c0,1.3-.6,2.4-1.5,3.4-4.8,4.8-19.2,19.2-24.6,24.6-.7.7-2,.7-2.8,0-4.7-4.7-15.8-15.8-20.3-20.3-.7-.7-.7-2,0-2.8,5.4-5.4,19.7-19.7,24.6-24.6.9-.9,2-1.5,3.4-1.5l19-.6c.7,0,1.5.2,2,.7.6.6.7,1.3.7,2l-.6,19,.1.1ZM71.4,49.5c.4-.4.4-.9,0-1.3l-18.4-18.6c-.4-.4-.9-.4-1.3,0l-23.5,23.3c-.4.4-.4.9,0,1.3l18.4,18.6c.4.4.9.4,1.3,0l23.3-23.3h.2ZM69.4,48.7l-22,22-17.1-17.1,22-22,17.1,17.1ZM50.8,42.6c0-.2-.4-.4-.7-.4s-.6,0-.7.4l-2.6,3.9-4.5,1.3c-.4,0-.6.4-.6.6v.9l2.8,3.7v4.7c-.2.4,0,.6.2.7.2,0,.6.2.9,0l4.3-1.7,4.3,1.7h.9c.2,0,.4-.6.4-.7v-4.7l2.6-3.7c.2-.2.2-.6,0-.9,0-.4-.4-.6-.6-.6l-4.5-1.3-2.6-3.9h.4ZM49.8,44.8l2,3s.4.4.6.4l3.5.9-2.2,2.8s-.2.4-.2.6v3.5l-3.2-1.3h-.7l-3.4,1.3v-4.1l-2.2-2.8,3.5-.9c.2,0,.4-.2.6-.4l2-3h-.4.1ZM71.3,29.7c-1.3-1.3-3.4-1.3-4.7,0s-1.3,3.4,0,4.7,3.4,1.3,4.7,0,1.3-3.4,0-4.7ZM69.9,31c.6.6.6,1.5,0,2s-1.5.6-2,0c-.6-.6-.6-1.5,0-2s1.5-.6,2,0Z"/>
    </g>
  </g>
</svg>